<?xml version="1.0" encoding="UTF-8" standalone="no"?>
<!-- Generator: Gravit.io -->
<svg xmlns="http://www.w3.org/2000/svg" xmlns:xlink="http://www.w3.org/1999/xlink" style="isolation:isolate" viewBox="0 0 1000 402.473" width="1000pt" height="402.473pt"><defs><clipPath id="_clipPath_8cWLjCJxzxbX4z52aYQQtqeTg1GDZ5tg"><rect width="1000" height="402.473"/></clipPath></defs><g clip-path="url(#_clipPath_8cWLjCJxzxbX4z52aYQQtqeTg1GDZ5tg)"><path d=" M 846.253 93.792 L 846.253 32.189 L 674.834 32.189 L 646.643 237.992 L 618.747 32.19 L 556.93 32.19 L 563.855 87.105 C 556.715 73.037 531.406 32.19 475.709 32.19 C 475.342 32.166 413.808 32.19 413.808 32.19 L 413.571 332.164 L 368.514 32.19 L 287.555 32.143 L 240.943 342.957 L 240.967 32.188 L 163.484 32.188 L 135.551 206.773 L 108.343 32.19 L 30.835 32.19 L 30.835 370.096 L 91.871 370.096 L 91.871 207.226 L 119.635 370.092 L 152.084 370.092 L 179.458 207.226 L 179.458 370.092 L 297.125 370.092 L 304.265 318.097 L 351.639 318.097 L 358.755 370.092 L 474.276 370.163 L 474.37 370.163 L 474.37 370.092 L 474.514 370.092 L 474.514 260.407 L 488.676 258.344 L 517.995 370.163 L 577.747 370.163 L 577.723 370.092 L 577.901 370.092 L 539.426 239.035 C 558.924 224.613 580.939 187.988 575.08 152.951 L 575.08 152.928 C 575.15 153.402 611.396 370.308 611.396 370.308 L 682.461 370.092 L 731.02 63.808 L 731.02 370.093 L 846.256 370.093 L 846.256 309.32 L 791.556 309.32 L 791.556 231.824 L 846.256 231.824 L 846.256 170.126 L 791.556 170.126 L 791.556 93.792 L 846.253 93.792 Z  M 311.455 264.513 L 328.213 120.052 L 345.613 264.513 L 311.455 264.513 Z  M 488.874 197.809 C 484.177 200.087 479.279 201.226 474.511 201.226 L 474.511 92.535 C 474.594 92.535 474.69 92.513 474.808 92.513 C 479.588 92.489 515.227 93.959 515.227 146.287 C 515.227 173.66 503.106 190.907 488.874 197.809 M 969.234 309.273 L 969.234 370.045 L 856.82 370.045 L 856.82 32.143 L 917.346 32.143 L 917.346 309.273 L 969.234 309.273 L 969.234 309.273 Z " fill="rgb(237,29,36)"/></g></svg>