<svg width="45" height="45" viewBox="0 0 45 45" fill="none" xmlns="http://www.w3.org/2000/svg">
<path d="M15.675 28.7437C15.2971 29.0612 15.0595 29.5148 15.0139 30.0062C14.9683 30.4976 15.1182 30.9872 15.4313 31.3687C15.5887 31.5586 15.782 31.7156 16.0001 31.8306C16.2183 31.9456 16.457 32.0165 16.7026 32.0391C16.9481 32.0618 17.1958 32.0357 17.4313 31.9625C17.6668 31.8893 17.8855 31.7704 18.075 31.6125C19.3284 30.6019 20.89 30.0508 22.5 30.0508C24.1101 30.0508 25.6716 30.6019 26.925 31.6125C27.2623 31.892 27.6869 32.0446 28.125 32.0438C28.5067 32.04 28.8782 31.9198 29.1898 31.6993C29.5013 31.4787 29.7382 31.1684 29.8686 30.8096C29.9991 30.4509 30.0169 30.0609 29.9198 29.6917C29.8226 29.3225 29.6151 28.9918 29.325 28.7437C27.3902 27.1886 24.9823 26.3408 22.5 26.3408C20.0177 26.3408 17.6098 27.1886 15.675 28.7437ZM17.2688 19.7625C17.6201 20.1117 18.0953 20.3077 18.5906 20.3077C19.086 20.3077 19.5612 20.1117 19.9125 19.7625C20.2617 19.4112 20.4577 18.936 20.4577 18.4406C20.4577 17.9453 20.2617 17.4701 19.9125 17.1188C18.8395 16.1006 17.4167 15.533 15.9375 15.533C14.4583 15.533 13.0355 16.1006 11.9625 17.1188C11.7662 17.2868 11.6068 17.4937 11.4943 17.7263C11.3817 17.9589 11.3185 18.2123 11.3085 18.4705C11.2985 18.7287 11.342 18.9862 11.4363 19.2269C11.5306 19.4675 11.6736 19.686 11.8563 19.8687C12.039 20.0514 12.2575 20.1944 12.4982 20.2887C12.7388 20.383 12.9963 20.4265 13.2545 20.4165C13.5127 20.4065 13.7661 20.3433 13.9987 20.2307C14.2313 20.1182 14.4382 19.9588 14.6063 19.7625C14.7806 19.5868 14.9879 19.4473 15.2164 19.3521C15.4449 19.2569 15.69 19.2079 15.9375 19.2079C16.185 19.2079 16.4301 19.2569 16.6586 19.3521C16.8871 19.4473 17.0945 19.5868 17.2688 19.7625V19.7625ZM22.5 3.75C18.7916 3.75 15.1665 4.84967 12.0831 6.90994C8.99964 8.97022 6.59641 11.8986 5.17727 15.3247C3.75812 18.7508 3.38681 22.5208 4.11028 26.1579C4.83376 29.7951 6.61952 33.136 9.24176 35.7583C11.864 38.3805 15.2049 40.1663 18.8421 40.8897C22.4792 41.6132 26.2492 41.2419 29.6753 39.8227C33.1014 38.4036 36.0298 36.0004 38.0901 32.9169C40.1503 29.8335 41.25 26.2084 41.25 22.5C41.25 20.0377 40.765 17.5995 39.8228 15.3247C38.8805 13.0498 37.4994 10.9828 35.7583 9.24175C34.0172 7.50065 31.9502 6.11953 29.6753 5.17726C27.4005 4.23498 24.9623 3.75 22.5 3.75V3.75ZM22.5 37.5C19.5333 37.5 16.6332 36.6203 14.1665 34.972C11.6997 33.3238 9.77713 30.9811 8.64182 28.2403C7.5065 25.4994 7.20945 22.4834 7.78823 19.5736C8.36701 16.6639 9.79562 13.9912 11.8934 11.8934C13.9912 9.79561 16.6639 8.367 19.5737 7.78822C22.4834 7.20944 25.4994 7.50649 28.2403 8.64181C30.9812 9.77712 33.3238 11.6997 34.9721 14.1664C36.6203 16.6332 37.5 19.5333 37.5 22.5C37.5 26.4782 35.9197 30.2936 33.1066 33.1066C30.2936 35.9196 26.4783 37.5 22.5 37.5V37.5ZM33.0375 17.1188C31.9645 16.1006 30.5417 15.533 29.0625 15.533C27.5833 15.533 26.1605 16.1006 25.0875 17.1188C24.7803 17.4774 24.6198 17.9388 24.638 18.4107C24.6563 18.8826 24.8519 19.3303 25.1858 19.6642C25.5198 19.9981 25.9674 20.1937 26.4393 20.212C26.9112 20.2302 27.3726 20.0697 27.7313 19.7625C27.9056 19.5868 28.1129 19.4473 28.3414 19.3521C28.5699 19.2569 28.815 19.2079 29.0625 19.2079C29.31 19.2079 29.5551 19.2569 29.7836 19.3521C30.0121 19.4473 30.2195 19.5868 30.3938 19.7625C30.7451 20.1117 31.2203 20.3077 31.7156 20.3077C32.211 20.3077 32.6862 20.1117 33.0375 19.7625C33.3867 19.4112 33.5827 18.936 33.5827 18.4406C33.5827 17.9453 33.3867 17.4701 33.0375 17.1188V17.1188Z" fill="#D90416"/>
</svg>
